# generated from PmQm by Jehee Lee
:FULLY-SPECIFIED
:DEGREES
161
root 14.0095 38.7131 -45.4185 -176.287 27.0661 -172.633
RightUpLeg -14.6901 7.18118 11.8498
RightLeg 13.2314 -6.9681 -2.94238
RightFoot -0.786189 0.28943 -3.18563
RightToes -0.000541893 -0.000659172 -0.000493268
Spine -0.155003 -2.26658 5.43934
Spine1 -0.749502 -3.94701 6.6799
HEad 20.9197 -31.5605 -2.93955
LeftShoulder1 -3.88251e-019 -0 -3.92111e-022
LeftArm -35.5219 7.23127 -82.0849
LeftForeArm 34.4561 1.92183 1.34059
LeftHand -0.864288 -4.19424 10.7286
RightShoulder 7.45443e-017 -2.42657e-020 1.96277e-018
RightArm -26.9832 -14.9455 69.3117
RightForeArm 23.0587 7.76215 7.59342
RightHand -1.37862 10.2777 -10.5636
LeftUpLeg -11.5945 1.22363 12.2159
LeftLeg 60.8529 0.83612 2.21202
LeftFoot 9.15268 0.436133 -2.69762
LeftToes 3.91355e-005 3.11907e-005 -4.10385e-006
162
root 14.6699 38.6822 -46.0432 -176.694 28.7707 -172.706
RightUpLeg -13.3248 7.3485 12.6109
RightLeg 14.6541 -5.71277 -2.7096
RightFoot -2.90399 0.267254 -3.88701
RightToes -0.000541893 -0.000659172 -0.000493268
Spine 0.00236255 -1.89683 5.51534
Spine1 -0.363919 -3.28012 6.34554
HEad 20.7737 -32.7451 -2.21707
LeftShoulder1 -3.88251e-019 -0 -3.92111e-022
LeftArm -34.6109 4.76807 -82.8599
LeftForeArm 34.3052 2.04002 0.501762
LeftHand -0.872734 -4.34185 10.6748
RightShoulder 7.45443e-017 -2.42657e-020 1.96277e-018
RightArm -24.9486 -13.3325 69.7933
RightForeArm 22.5822 9.08789 8.63924
RightHand -1.43363 10.4915 -10.8268
LeftUpLeg -16.2335 -0.213345 10.8955
LeftLeg 62.9481 1.70973 4.266
LeftFoot 2.37651 0.164262 -1.49892
LeftToes 3.91355e-005 3.11907e-005 -4.10385e-006
163
root 15.2928 38.6565 -46.7017 -177.041 30.9638 -173.088
RightUpLeg -12.0749 7.69196 12.9261
RightLeg 16.0818 -4.09487 -2.30747
RightFoot -5.11831 0.213491 -4.56263
RightToes -0.000541893 -0.000659172 -0.000493268
Spine 0.0588548 -1.47773 5.25297
Spine1 -0.122672 -2.63455 5.87764
HEad 20.938 -33.2548 -1.72625
LeftShoulder1 -3.88251e-019 -0 -3.92111e-022
LeftArm -33.5375 3.42364 -83.5713
LeftForeArm 32.8882 1.40265 -0.780418
LeftHand -0.858247 -4.40968 10.4342
RightShoulder 7.45443e-017 -2.42657e-020 1.96277e-018
RightArm -21.526 -11.937 70.715
RightForeArm 20.3581 10.7162 9.42291
RightHand -1.48237 10.6183 -11.0949
LeftUpLeg -20.159 -2.05667 9.33013
LeftLeg 60.6999 2.64508 5.67574
LeftFoot -1.36077 0.109133 -1.17099
LeftToes 3.91355e-005 3.11907e-005 -4.10385e-006
164
root 15.9189 38.7118 -47.3694 -177.709 33.591 -173.795
RightUpLeg -10.1192 8.14377 12.947
RightLeg 16.5474 -2.33919 -1.83341
RightFoot -6.77997 0.163241 -5.24241
RightToes -0.000541893 -0.000659172 -0.000493268
Spine 0.205236 -1.07431 4.65643
Spine1 0.311506 -2.04003 5.17197
HEad 20.5397 -33.0965 -1.19047
LeftShoulder1 -3.88251e-019 -0 -3.92111e-022
LeftArm -32.6573 2.68965 -84.0191
LeftForeArm 31.7629 -2.05739 -2.39362
LeftHand -0.841759 -4.4074 10.2427
RightShoulder 7.45443e-017 -2.42657e-020 1.96277e-018
RightArm -16.0255 -10.6374 71.8278
RightForeArm 16.2832 12.7944 9.81643
RightHand -1.52185 10.8886 -11.1989
LeftUpLeg -22.703 -3.77332 7.97082
LeftLeg 54.5351 3.55629 5.83733
LeftFoot -2.87189 0.101671 -1.13935
LeftToes 3.91355e-005 3.11907e-005 -4.10385e-006
165
root 16.5137 38.7915 -48.0368 -178.119 36.7819 -174.386
RightUpLeg -8.04229 8.5139 12.8382
RightLeg 16.294 -0.0616748 -1.05943
RightFoot -7.99983 0.119997 -5.95669
RightToes -0.000541893 -0.000659172 -0.000493268
Spine 0.327418 -0.618953 3.93215
Spine1 0.670407 -1.31146 4.61179
HEad 19.6608 -32.5253 -0.856177
LeftShoulder1 -3.88251e-019 -0 -3.92111e-022
LeftArm -32.1861 2.48137 -84.3562
LeftForeArm 31.8872 -5.77825 -3.75501
LeftHand -0.872222 -4.45827 10.5494
RightShoulder 7.45443e-017 -2.42657e-020 1.96277e-018
RightArm -9.56721 -9.43049 72.9016
RightForeArm 12.4989 14.8162 9.64697
RightHand -1.53075 11.1801 -11.0743
LeftUpLeg -23.995 -5.1983 7.30782
LeftLeg 44.7548 4.22135 4.87757
LeftFoot -3.4919 0.100018 -1.15159
LeftToes 3.91355e-005 3.11907e-005 -4.10385e-006
166
root 17.0918 38.816 -48.7245 -177.648 40.0469 -174.361
RightUpLeg -6.6006 9.12108 12.885
RightLeg 16.2114 2.24253 -0.041995
RightFoot -9.14188 0.0685335 -6.76469
RightToes -0.000541893 -0.000659172 -0.000493268
Spine 0.251877 -0.28511 3.29287
Spine1 0.565937 -0.730904 4.68193
HEad 19.0022 -31.5933 -1.14151
LeftShoulder1 -3.88251e-019 -0 -3.92111e-022
LeftArm -32.2707 2.94119 -84.7846
LeftForeArm 32.4373 -8.34787 -4.57847
LeftHand -0.921583 -4.60597 10.9719
RightShoulder 7.45443e-017 -2.42657e-020 1.96277e-018
RightArm -5.17936 -8.48065 73.7593
RightForeArm 11.589 15.7844 9.47096
RightHand -1.4973 11.3481 -10.7399
LeftUpLeg -24.4214 -7.16929 7.91748
LeftLeg 32.1143 4.21099 3.09515
LeftFoot -0.782499 0.15587 -1.62324
LeftToes 3.91355e-005 3.11907e-005 -4.10385e-006
167
root 17.7199 38.8784 -49.4237 -177.031 43.0368 -174.3
RightUpLeg -4.90783 9.29498 12.8516
RightLeg 15.4521 4.69852 0.858375
RightFoot -9.82978 0.0339931 -7.54979
RightToes -0.000541893 -0.000659172 -0.000493268
Spine 0.197621 -0.181762 2.5649
Spine1 0.415297 -0.449041 4.81026
HEad 18.4404 -30.397 -1.5852
LeftShoulder1 -3.88251e-019 -0 -3.92111e-022
LeftArm -32.66 3.49835 -85.238
LeftForeArm 32.359 -8.78081 -4.58334
LeftHand -0.908891 -4.66171 10.7674
RightShoulder 7.45443e-017 -2.42657e-020 1.96277e-018
RightArm -5.14257 -7.78783 74.4891
RightForeArm 14.2099 15.196 9.87319
RightHand -1.43821 11.3536 -10.3317
LeftUpLeg -23.4318 -5.63908 7.38813
LeftLeg 17.3259 -0.831973 1.69597
LeftFoot 3.86733 0.382882 -2.97631
LeftToes 3.91355e-005 3.11907e-005 -4.10385e-006
168
root 18.4236 38.8732 -50.2171 -176.507 46.1561 -174.077
RightUpLeg -2.95959 8.77798 12.7251
RightLeg 15.0646 7.69239 1.85467
RightFoot -11.0261 -0.0515752 -8.25798
RightToes -0.000541893 -0.000659172 -0.000493268
Spine 0.271581 -0.0813166 1.98848
Spine1 0.478727 -0.122464 4.93075
HEad 17.576 -29.1098 -1.74694
LeftShoulder1 -3.88251e-019 -0 -3.92111e-022
LeftArm -33.0208 3.80014 -85.5764
LeftForeArm 31.9689 -6.98286 -3.85442
LeftHand -0.851032 -4.56919 10.1908
RightShoulder 7.45443e-017 -2.42657e-020 1.96277e-018
RightArm -9.5463 -7.45421 75.1996
RightForeArm 19.4652 13.1859 10.669
RightHand -1.41347 11.307 -10.189
LeftUpLeg -22.1552 2.05159 4.90831
LeftLeg 5.06339 -11.9192 1.26872
LeftFoot 3.76541 0.807189 -6.29853
LeftToes 3.91355e-005 3.11907e-005 -4.10385e-006
169
root 19.2072 38.7385 -51.1555 -175.745 49.0359 -173.529
RightUpLeg -1.4506 8.71595 12.6194
RightLeg 16.1547 10.2919 3.00835
RightFoot -13.0927 -0.228644 -9.13624
RightToes -0.000541893 -0.000659172 -0.000493268
Spine 0.218845 -0.0724999 1.90967
Spine1 0.316798 -0.0515519 5.22642
HEad 16.8961 -27.481 -2.17048
LeftShoulder1 -3.88251e-019 -0 -3.92111e-022
LeftArm -33.5302 4.09751 -85.8326
LeftForeArm 31.3025 -2.67241 -2.57717
LeftHand -0.810748 -4.83457 9.48489
RightShoulder 7.45443e-017 -2.42657e-020 1.96277e-018
RightArm -16.1201 -7.85586 75.6651
RightForeArm 25.7832 10.3766 11.0895
RightHand -1.42412 11.2931 -10.2704
LeftUpLeg -22.9237 3.6621 5.19252
LeftLeg 1.98685 -15.9792 -0.266395
LeftFoot -1.86394 0.853085 -10.2814
LeftToes 3.91355e-005 3.11907e-005 -4.10385e-006
170
root 20.0272 38.7024 -52.09 -176.087 50.7896 -174.401
RightUpLeg 0.231754 9.87225 11.8922
RightLeg 16.8 10.8598 3.35064
RightFoot -14.7513 -0.396765 -9.95932
RightToes -0.000541893 -0.000659172 -0.000493268
Spine 0.128198 -0.402044 1.65839
Spine1 0.101541 -0.731754 4.81727
HEad 16.7135 -25.5896 -2.91279
LeftShoulder1 -3.88251e-019 -0 -3.92111e-022
LeftArm -34.5188 4.0048 -85.9478
LeftForeArm 29.568 2.61647 -0.712182
LeftHand -0.752335 -5.77584 8.13356
RightShoulder 7.45443e-017 -2.42657e-020 1.96277e-018
RightArm -21.9055 -9.24108 75.686
RightForeArm 30.8613 7.78981 10.4449
RightHand -1.37271 11.1206 -10.0137
LeftUpLeg -22.7368 2.86061 4.1821
LeftLeg 2.61933 -18.1493 -0.370375
LeftFoot -3.05646 0.848195 -11.4303
LeftToes 3.91355e-005 3.11907e-005 -4.10385e-006
171
root 20.9209 38.704 -53.0741 -177.689 52.3661 -176.369
RightUpLeg 2.59598 10.9192 10.6674
RightLeg 17.0305 10.6247 3.31408
RightFoot -16.3672 -0.569239 -10.4283
RightToes -0.000541893 -0.000659172 -0.000493268
Spine 0.148709 -0.603829 1.18823
Spine1 0.1395 -1.2163 3.81833
HEad 16.4723 -24.3531 -3.15338
LeftShoulder1 -3.88251e-019 -0 -3.92111e-022
LeftArm -35.5476 3.58641 -85.8064
LeftForeArm 27.085 2.05991 1.46678
LeftHand -0.674428 -6.34236 6.99762
RightShoulder 7.45443e-017 -2.42657e-020 1.96277e-018
RightArm -25.236 -11.317 75.4363
RightForeArm 32.6856 5.84088 8.5571
RightHand -1.24123 10.6934 -9.32416
LeftUpLeg -21.2407 1.40271 2.41275
LeftLeg 4.3076 -19.1039 -0.0630186
LeftFoot 1.96681 1.1455 -9.90812
LeftToes 3.91355e-005 3.11907e-005 -4.10385e-006
172
root 21.9097 38.7187 -54.1579 -179.982 54.9222 -178.873
RightUpLeg 5.01592 11.1681 8.71519
RightLeg 17.9871 11.9998 4.06744
RightFoot -17.3028 -0.667019 -10.5413
RightToes -0.000541893 -0.000659172 -0.000493268
Spine 0.178966 -0.373212 0.545873
Spine1 0.205552 -0.837285 2.54909
HEad 16.1445 -23.9796 -2.77553
LeftShoulder1 -3.88251e-019 -0 -3.92111e-022
LeftArm -36.5858 4.63867 -85.4389
LeftForeArm 26.1985 2.02592 3.7202
LeftHand -0.700182 -5.45022 7.82515
RightShoulder 7.45443e-017 -2.42657e-020 1.96277e-018
RightArm -26.5813 -13.3362 75.0761
RightForeArm 32.0832 3.80628 5.80917
RightHand -1.10182 10.0934 -8.62676
LeftUpLeg -19.6052 0.609214 1.04888
LeftLeg 6.62075 -18.2558 -0.842825
LeftFoot 6.15221 1.36004 -9.05524
LeftToes 3.91355e-005 3.11907e-005 -4.10385e-006
